<svg viewBox="0 0 24 24">
  <path fill-rule="evenodd" clip-rule="evenodd" d="M7.071 6.343C8.6 4.815 9.881 4 12 4a8 8 0 0 1 8 8h2c0-5.523-4.477-10-10-10-2.853 0-4.614 1.2-6.343 2.929L3.828 6.757 2 4.93V10h5.071L5.243 8.172 7.07 6.343Zm9.858 11.314C15.4 19.185 14.119 20 12 20a8 8 0 0 1-8-8H2c0 5.523 4.477 10 10 10 2.852 0 4.614-1.2 6.343-2.929l1.864-1.864L22 19v-5h-5l1.793 1.793-1.864 1.864Z" fill="#76808F"/>
  <path fill-rule="evenodd" clip-rule="evenodd" d="M12 16a4 4 0 1 0 0-8 4 4 0 0 0 0 8Zm0-2.4L10.4 12l1.6-1.6 1.6 1.6-1.6 1.6Z" fill="url(#f)"/>
  <defs>
    <linearGradient id="f" x1="12" y1="16" x2="12" y2="8" gradientUnits="userSpaceOnUse">
      <stop stop-color="#F0B90B"/>
      <stop offset="1" stop-color="#F8D33A"/>
    </linearGradient>
  </defs>
</svg>