<svg viewBox="0 0 24 24">
  












<g><circle r="10" transform="matrix(1 0 0 -1 12 12)" fill="url(#paint0_linear)"></circle><path d="M13.088 20v-1.782c2.468-.408 3.62-1.949 3.62-3.768 0-1.893-1.244-2.951-3.843-3.545V7.824c.89.204 1.485.612 1.93 1.113l1.69-1.522c-.817-.928-1.912-1.503-3.397-1.67V4h-2.116v1.745c-2.395.278-3.675 1.578-3.675 3.526 0 1.8 1.132 3.026 3.916 3.601v3.341c-1.04-.148-1.912-.65-2.617-1.392l-1.67 1.522c.927 1.021 2.171 1.782 4.046 1.95V20h2.116zM9.858 9.197c0-.724.408-1.225 1.355-1.41v2.747c-.947-.26-1.355-.631-1.355-1.337zm4.288 5.457c0 .706-.409 1.281-1.281 1.522v-2.932c1.058.315 1.28.872 1.28 1.41z" fill="#76808F"></path><defs><linearGradient id="paint0_linear" x1="10" y1="0" x2="10" y2="20" gradientUnits="userSpaceOnUse"><stop stop-color="#F0B90B"></stop><stop offset="1" stop-color="#F8D33A"></stop></linearGradient></defs></g>





















  
</svg>