<svg viewBox="0 0 24 24">
  














<g><path d="M6 2h15v17a2 2 0 0 1-2 2H4l2-2V2z" fill="url(#paint0_linear)"></path><path d="M4 21a2 2 0 0 0 2-2v-7H2v7a2 2 0 0 0 2 2z" fill="#76808F"></path><path d="M9.5 10.5h2V7H14l-3.5-3.5L7 7h2.5v3.5z" fill="#76808F"></path><path d="M11.5 12.5h-2V16H7l3.5 3.5L14 16h-2.5v-3.5z" fill="#76808F"></path><path d="M15.846 16h1.298L19.5 9h-1.817l-1.178 3.913L15.307 9H13.5l2.346 7z" fill="#76808F"></path><defs><linearGradient id="paint0_linear" x1="12.5" y1="21" x2="12.5" y2="2" gradientUnits="userSpaceOnUse"><stop offset=".333" stop-color="#F0B90B"></stop><stop offset="1" stop-color="#FBDA3C"></stop></linearGradient></defs></g>






















  
</svg>